<svg width="25" height="25" viewBox="0 0 25 25" fill="none" xmlns="http://www.w3.org/2000/svg">
<path d="M24.2866 17.6659L18.8179 15.3221C18.5843 15.2225 18.3246 15.2015 18.078 15.2623C17.8315 15.3231 17.6113 15.4623 17.4507 15.659L15.0288 18.618C11.2279 16.8259 8.16904 13.767 6.37695 9.96604L9.33594 7.54412C9.53305 7.38381 9.67256 7.16364 9.73335 6.91694C9.79414 6.67025 9.7729 6.41046 9.67285 6.17691L7.3291 0.708066C7.21929 0.456308 7.02508 0.250756 6.77996 0.126854C6.53483 0.00295179 6.25416 -0.031534 5.98633 0.0293429L0.908203 1.20124C0.649985 1.26087 0.419602 1.40626 0.254656 1.61369C0.0897096 1.82112 -5.94829e-05 2.07833 2.95713e-08 2.34335C2.95713e-08 14.868 10.1514 25 22.6562 25C22.9213 25.0002 23.1787 24.9104 23.3862 24.7455C23.5937 24.5805 23.7392 24.3501 23.7988 24.0918L24.9707 19.0136C25.0312 18.7444 24.996 18.4626 24.8711 18.2167C24.7463 17.9707 24.5396 17.7759 24.2866 17.6659Z" fill="#B3B3B3"/>
</svg>
